# xmcd CD database file
#
# Track frame offsets:
#	150
#	46625
#	59255
#	83390
#	94042
#	111852
#	123925
#	134392
#	153325
#	167422
#	182277
#	201327
#	221042
#	239057
#	271955
#	295072
#	315932
#	334750
#
# Disc length: 4747 seconds
#
# Revision: 0
# Processed by: cddbd v1.4PL0 Copyright (c) Steve Scherf et al.
# Submitted via: CDex 1.50beta8
#
DISCID=f0128912
DTITLE=Albert King - Best Blues Masters Vol.1
DYEAR=1996
DGENRE=Blues
TTITLE0=Blues Power
TTITLE1=Born Under A Bad Sign
TTITLE2=Cold Sweat
TTITLE3=Wrapped Up In Love Again
TTITLE4=Drowning On Dry Land (Part 1)
TTITLE5=Drowning On Dry Land (Instrumental) (Part 2)
TTITLE6=Left Hand Woman Get Right With Me
TTITLE7=The Sky Is Crying
TTITLE8=Killing Floor
TTITLE9=You Threw Your Love On Me Too Strong
TTITLE10=Driving Wheel
TTITLE11=Everybody Wants To Go To Heaven
TTITLE12=Breaking Up Somebody's Home
TTITLE13=I'll Play The Blues For You (Part 1 and 2)
TTITLE14=Don't Burn Down The Bridge
TTITLE15=Answer To The Laundromat Blues
TTITLE16=I Wanna Get Funky
TTITLE17=Oh, Pretty Woman
EXTD=YEAR: 1996
EXTT0=
EXTT1=
EXTT2=
EXTT3=
EXTT4=
EXTT5=
EXTT6=
EXTT7=
EXTT8=
EXTT9=
EXTT10=
EXTT11=
EXTT12=
EXTT13=
EXTT14=
EXTT15=
EXTT16=
EXTT17=
PLAYORDER=
